<svg xmlns="http://www.w3.org/2000/svg" xmlns:xlink="http://www.w3.org/1999/xlink" width="500" zoomAndPan="magnify" viewBox="0 0 375 374.999991" height="500" preserveAspectRatio="xMidYMid meet" version="1.2"><defs><clipPath id="cd4d545e42"><path d="M 58.226562 51.03125 L 316.976562 51.03125 L 316.976562 324 L 58.226562 324 Z M 58.226562 51.03125 "/></clipPath><clipPath id="0fd48bae1d"><path d="M 156.070312 22.335938 L 219 22.335938 L 219 359.832031 L 156.070312 359.832031 Z M 156.070312 22.335938 "/></clipPath><clipPath id="ddefd6dc64"><path d="M 176 22.335938 L 218 22.335938 L 218 99 L 176 99 Z M 176 22.335938 "/></clipPath><clipPath id="38b9158599"><path d="M 173 308 L 191 308 L 191 359.832031 L 173 359.832031 Z M 173 308 "/></clipPath></defs><g id="492a18543b"><g clip-rule="nonzero" clip-path="url(#cd4d545e42)"><path style=" stroke:none;fill-rule:nonzero;fill:#5ce1e6;fill-opacity:1;" d="M 316.765625 144.40625 L 316.765625 187.496094 C 316.765625 223.1875 258.882812 252.132812 187.496094 252.132812 C 116.109375 252.132812 58.226562 223.1875 58.226562 187.496094 L 58.226562 144.40625 C 58.226562 180.097656 116.109375 209.042969 187.496094 209.042969 C 258.882812 209.042969 316.765625 180.097656 316.765625 144.40625 Z M 58.226562 216.222656 C 58.226562 251.914062 116.109375 280.859375 187.496094 280.859375 C 258.882812 280.859375 316.765625 251.914062 316.765625 216.222656 L 316.765625 259.3125 C 316.765625 295.003906 258.882812 323.949219 187.496094 323.949219 C 116.109375 323.949219 58.226562 295.003906 58.226562 259.3125 Z M 187.496094 180.316406 C 116.109375 180.316406 58.226562 151.371094 58.226562 115.679688 C 58.226562 79.988281 116.109375 51.046875 187.496094 51.046875 C 258.882812 51.046875 316.765625 79.988281 316.765625 115.679688 C 316.765625 151.371094 258.882812 180.316406 187.496094 180.316406 Z M 187.496094 180.316406 "/></g><g clip-rule="nonzero" clip-path="url(#0fd48bae1d)"><path style=" stroke:none;fill-rule:nonzero;fill:#0097b2;fill-opacity:1;" d="M 218.171875 218.179688 C 217.386719 212.648438 216.558594 207.121094 215.714844 201.605469 C 214.855469 196.082031 214 190.566406 213.085938 185.054688 C 212.1875 179.542969 211.261719 174.035156 210.304688 168.53125 C 209.367188 163.023438 208.359375 157.53125 207.367188 152.035156 L 206.359375 146.449219 L 202.085938 143.339844 C 197.945312 140.332031 193.816406 137.3125 189.652344 134.34375 C 187.140625 132.523438 184.605469 130.734375 182.066406 128.949219 C 181.980469 126.339844 181.886719 123.726562 181.75 121.121094 L 181.394531 113.554688 L 191.1875 108.789062 C 196.945312 105.875 202.738281 103.050781 208.460938 100.058594 L 217.1875 95.492188 L 213.429688 88.140625 L 209.167969 79.808594 L 204.808594 71.511719 C 201.917969 65.972656 198.894531 60.492188 195.890625 55.003906 L 191.296875 46.804688 L 186.589844 38.652344 C 183.40625 33.234375 180.164062 27.84375 176.730469 22.527344 C 178 28.730469 179.464844 34.84375 180.984375 40.941406 L 183.332031 50.054688 L 185.796875 59.128906 C 187.492188 65.152344 189.171875 71.183594 190.988281 77.160156 L 193.558594 85.707031 C 190.0625 86.871094 186.570312 88.050781 183.066406 89.203125 L 164.796875 95.523438 L 157.9375 97.898438 L 157.539062 106.386719 L 156.855469 121.121094 C 156.597656 126.03125 156.488281 130.9375 156.3125 135.847656 L 156.09375 141.878906 L 161.484375 146.226562 C 165.46875 149.433594 169.4375 152.667969 173.460938 155.824219 C 175.988281 157.835938 178.527344 159.824219 181.078125 161.8125 C 181.667969 165.59375 182.265625 169.375 182.890625 173.152344 C 183.789062 178.667969 184.71875 184.171875 185.679688 189.675781 C 186.625 195.179688 187.625 200.671875 188.621094 206.167969 C 189.355469 210.152344 190.109375 214.132812 190.871094 218.113281 C 189.792969 220.046875 188.726562 221.980469 187.648438 223.910156 L 181.863281 234.324219 L 176.214844 244.824219 C 174.328125 248.320312 172.4375 251.816406 170.617188 255.351562 L 167.738281 260.9375 L 169.742188 265.351562 L 174.894531 276.710938 L 180.191406 288.011719 C 181.933594 291.789062 183.78125 295.523438 185.589844 299.273438 L 188.316406 304.890625 L 189.988281 308.226562 L 188.890625 311.25 L 186.511719 318.089844 C 184.902344 322.640625 183.40625 327.246094 181.863281 331.828125 C 180.375 336.4375 178.890625 341.046875 177.484375 345.695312 C 176.074219 350.34375 174.691406 355.003906 173.460938 359.734375 C 176.367188 355.800781 179.117188 351.796875 181.84375 347.777344 C 184.570312 343.761719 187.21875 339.703125 189.867188 335.648438 C 192.457031 331.5625 195.097656 327.507812 197.625 323.394531 L 201.445312 317.234375 L 205.183594 311.042969 L 206.488281 308.878906 L 205.425781 305 L 203.761719 298.96875 L 202.035156 292.96875 C 200.871094 288.96875 199.75 284.957031 198.519531 280.984375 L 194.90625 269.035156 L 193.027344 263.09375 C 194.335938 261.152344 195.636719 259.207031 196.929688 257.253906 L 203.53125 247.328125 L 210.003906 237.328125 C 212.152344 233.984375 214.339844 230.667969 216.449219 227.304688 L 218.910156 223.371094 L 218.171875 218.179688 "/></g><g clip-rule="nonzero" clip-path="url(#ddefd6dc64)"><path style=" stroke:none;fill-rule:nonzero;fill:#545454;fill-opacity:1;" d="M 210.804688 98.832031 L 176.730469 22.527344 C 176.730469 22.527344 193.253906 47.667969 217.1875 95.492188 L 210.804688 98.832031 "/></g><path style=" stroke:none;fill-rule:nonzero;fill:#545454;fill-opacity:1;" d="M 193.558594 85.707031 L 193.558594 91.648438 L 157.644531 104.167969 L 157.9375 97.898438 L 193.558594 85.707031 "/><path style=" stroke:none;fill-rule:nonzero;fill:#545454;fill-opacity:1;" d="M 182.066406 128.949219 C 188.410156 133.449219 206.359375 146.449219 206.359375 146.449219 C 214.933594 192.617188 218.910156 223.371094 218.910156 223.371094 L 214.289062 230.753906 L 200.960938 152.601562 L 182.066406 138.859375 L 182.066406 128.949219 "/><path style=" stroke:none;fill-rule:nonzero;fill:#545454;fill-opacity:1;" d="M 190.871094 218.113281 L 190.871094 229.753906 L 170.472656 266.960938 L 167.738281 260.9375 C 167.738281 260.9375 176.742188 243.066406 190.871094 218.113281 "/><path style=" stroke:none;fill-rule:nonzero;fill:#545454;fill-opacity:1;" d="M 193.027344 263.09375 L 190.871094 272.136719 L 203.230469 314.277344 L 206.488281 308.878906 C 206.488281 308.878906 201.566406 290.195312 193.027344 263.09375 "/><g clip-rule="nonzero" clip-path="url(#38b9158599)"><path style=" stroke:none;fill-rule:nonzero;fill:#545454;fill-opacity:1;" d="M 189.988281 308.226562 L 190.871094 320.464844 L 173.460938 359.734375 C 173.460938 359.734375 179.074219 338.332031 189.988281 308.226562 "/></g></g></svg>